<svg width="107" height="30" viewBox="0 0 107 30" fill="none" xmlns="http://www.w3.org/2000/svg">
<path d="M28.4324 15C28.4371 22.2208 22.5629 28.0783 15.3134 28.0829C8.06386 28.0871 2.18268 22.2367 2.17847 15.0159C2.17847 15.0103 2.17847 15.0056 2.17847 15C2.17426 7.77876 8.04797 1.92133 15.2975 1.91715C22.5479 1.91295 28.4282 7.7634 28.4324 14.9842C28.4324 14.9893 28.4324 14.9944 28.4324 15Z" fill="white"/>
<path d="M25.9766 4.35027C28.8875 7.24965 30.3432 10.8001 30.3432 15C30.3432 19.2004 28.9127 22.7131 26.0517 25.538C23.0156 28.5128 19.4273 30 15.2868 30C11.1963 30 7.67008 28.5254 4.70916 25.5748C1.74778 22.6256 0.267334 19.1004 0.267334 15C0.267334 10.9001 1.74778 7.35016 4.70916 4.35027C7.59486 1.44947 11.121 0 15.2868 0C19.503 -8.31865e-06 23.0656 1.44947 25.9766 4.35027ZM6.66895 6.30042C4.20786 8.77638 2.97784 11.6772 2.97784 15.0037C2.97784 18.3298 4.19573 21.2055 6.63107 23.6312C9.06692 26.0569 11.9666 27.27 15.3312 27.27C18.6957 27.27 21.6202 26.0453 24.106 23.594C26.4661 21.3181 27.6467 18.4555 27.6467 15.0037C27.6467 11.578 26.447 8.67074 24.049 6.28227C21.6515 3.89425 18.7457 2.69978 15.3312 2.69978C11.9166 2.69978 9.02859 3.90029 6.66895 6.30042ZM13.1453 13.5408C12.7692 12.7237 12.2063 12.3156 11.4555 12.3156C10.1283 12.3156 9.46493 13.2057 9.46493 14.9847C9.46493 16.7645 10.1283 17.6542 11.4555 17.6542C12.3319 17.6542 12.958 17.221 13.3335 16.3527L15.1733 17.3285C14.2964 18.8803 12.9808 19.6564 11.2266 19.6564C9.87371 19.6564 8.78987 19.2432 7.97605 18.4173C7.16086 17.5909 6.75443 16.4518 6.75443 15C6.75443 13.5733 7.17396 12.4403 8.01347 11.6018C8.85295 10.7628 9.89848 10.3436 11.1519 10.3436C13.0061 10.3436 14.3338 11.0709 15.1364 12.525L13.1453 13.5408ZM21.8005 13.5408C21.424 12.7237 20.8723 12.3156 20.1449 12.3156C18.791 12.3156 18.1136 13.2057 18.1136 14.9847C18.1136 16.7645 18.791 17.6542 20.1449 17.6542C21.0227 17.6542 21.6375 17.221 21.9883 16.3527L23.8691 17.3285C22.9937 18.8803 21.68 19.6564 19.9291 19.6564C18.578 19.6564 17.4965 19.2432 16.6832 18.4173C15.8712 17.5909 15.4643 16.4518 15.4643 15C15.4643 13.5733 15.8773 12.4403 16.7028 11.6018C17.5278 10.7628 18.578 10.3436 19.8543 10.3436C21.7052 10.3436 23.0311 11.0709 23.8309 12.525L21.8005 13.5408Z" fill="black"/>
<path d="M104.145 15.0004C104.15 22.1164 98.3726 27.8879 91.2381 27.8935C84.1049 27.8979 78.3183 22.1339 78.3132 15.0192C78.3132 15.0117 78.3132 15.006 78.3132 15.0004C78.3082 7.88369 84.086 2.11216 91.2192 2.10654C98.3537 2.10213 104.14 7.86614 104.145 14.9809C104.145 14.9872 104.145 14.9941 104.145 15.0004Z" fill="white"/>
<path d="M91.2106 0C95.4253 0 98.9894 1.44993 101.9 4.34921C104.811 7.24971 106.267 10.8005 106.267 15.0003C106.267 19.2001 104.836 22.7126 101.976 25.5384C98.9391 28.5136 95.3511 30 91.2106 30C87.1192 30 83.5941 28.525 80.6328 25.5748C77.6716 22.626 76.1915 19.1003 76.1915 15.0003C76.1915 10.8997 77.6715 7.34891 80.6328 4.34921C83.5186 1.44993 87.0449 0 91.2106 0ZM79.5744 10.97C79.1264 12.236 78.9024 13.5792 78.9024 15.0003C78.9024 18.3251 80.1181 21.1993 82.552 23.6253C84.986 26.0494 87.8843 27.2627 91.2483 27.2627C94.6111 27.2627 97.5333 26.0381 100.018 23.587C100.849 22.7861 101.535 21.9111 102.073 20.9633L96.4032 18.4457C96.0193 20.3482 94.3203 21.633 92.2652 21.7837V24.0967H90.5385V21.7837C88.8509 21.7648 87.2198 21.0763 85.9739 19.9879L88.0441 17.9046C89.0422 18.8411 90.0401 19.2616 91.4018 19.2616C92.2841 19.2616 93.2619 18.917 93.2619 17.7703C93.2619 17.3642 93.1034 17.0817 92.8555 16.8695L91.422 16.2318L89.6362 15.4397C88.754 15.0468 88.0064 14.716 87.2551 14.382L79.5744 10.97ZM91.2483 2.69967C87.8353 2.69967 84.9495 3.89919 82.5911 6.30003C81.948 6.94658 81.3905 7.62192 80.9147 8.32619L86.6648 10.8796C87.1834 9.28843 88.6986 8.32305 90.5385 8.21638V5.90336H92.2652V8.21638C93.4545 8.27347 94.7583 8.59861 96.0432 9.59162L94.0674 11.6177C93.3387 11.1024 92.4187 10.739 91.4975 10.739C90.75 10.739 89.6953 10.9675 89.6953 11.9033C89.6953 12.0471 89.7419 12.1726 89.83 12.2843L91.753 13.138L93.0543 13.7167C93.8861 14.0877 94.6815 14.4392 95.4693 14.7894L103.174 18.2109C103.429 17.2047 103.557 16.1339 103.557 15.0003C103.557 11.5738 102.352 8.67516 99.9433 6.30001C97.5585 3.89919 94.6602 2.69967 91.2483 2.69967Z" fill="black"/>
<path d="M53.1497 29.1975C60.8411 29.1975 67.0763 22.9779 67.0763 15.3057C67.0763 7.63342 60.8411 1.41385 53.1497 1.41385C45.4582 1.41385 39.223 7.63342 39.223 15.3057C39.223 22.9779 45.4582 29.1975 53.1497 29.1975Z" fill="white"/>
<path d="M57.1804 11.2866C57.1804 10.7512 56.745 10.3174 56.2089 10.3174H50.0584C49.5223 10.3174 49.0868 10.7512 49.0868 11.2866V17.4223H50.8022V24.6879H55.4638V17.4223H57.1804L57.1804 11.2866Z" fill="black"/>
<path d="M53.1335 9.50957C54.2954 9.50957 55.2372 8.57009 55.2372 7.41119C55.2372 6.25229 54.2954 5.31281 53.1335 5.31281C51.9717 5.31281 51.0299 6.25229 51.0299 7.41119C51.0299 8.57009 51.9717 9.50957 53.1335 9.50957Z" fill="black"/>
<path fill-rule="evenodd" clip-rule="evenodd" d="M53.1142 0C48.9497 0 45.4227 1.44934 42.5368 4.34992C39.5755 7.34967 38.0955 10.9005 38.0955 15C38.0955 19.0995 39.5755 22.6252 42.5368 25.5754C45.4982 28.5249 49.0246 30 53.1142 30C57.2548 30 60.8441 28.5136 63.8797 25.5377C66.7416 22.7131 68.1713 19.2005 68.1713 15C68.1713 10.7995 66.7164 7.24985 63.8054 4.3499C60.8944 1.44934 57.3303 0 53.1142 0ZM53.1519 2.69908C56.5651 2.69908 59.4635 3.89986 61.8472 6.29954C64.2573 8.67473 65.4617 11.5747 65.4617 15C65.4617 18.4498 64.2824 21.3127 61.9227 23.5875C59.4383 26.038 56.5147 27.2626 53.1519 27.2626C49.7891 27.2626 46.8907 26.0499 44.4574 23.6252C42.0221 21.1997 40.8057 18.3249 40.8057 15C40.8057 11.6745 42.0353 8.77454 44.4945 6.29954C46.8536 3.89985 49.7401 2.69908 53.1519 2.69908Z" fill="black"/>
</svg>
